<svg xmlns="http://www.w3.org/2000/svg" width="30" height="30" viewBox="0 0 36 36" fill="none">
    <path d="M16.5 6H6C5.20435 6 4.44129 6.31607 3.87868 6.87868C3.31607 7.44129 3 8.20435 3 9V30C3 30.7956 3.31607 31.5587 3.87868 32.1213C4.44129 32.6839 5.20435 33 6 33H27C27.7956 33 28.5587 32.6839 29.1213 32.1213C29.6839 31.5587 30 30.7956 30 30V19.5" stroke="black" stroke-width="2" stroke-linecap="round" stroke-linejoin="round" />
    <path d="M27.75 3.7501C28.3467 3.15336 29.1561 2.81812 30 2.81812C30.8439 2.81812 31.6533 3.15336 32.25 3.7501C32.8467 4.34683 33.182 5.15618 33.182 6.0001C33.182 6.84401 32.8467 7.65336 32.25 8.2501L18 22.5001L12 24.0001L13.5 18.0001L27.75 3.7501Z" stroke="black" stroke-width="2" stroke-linecap="round" stroke-linejoin="round" />
</svg>